HIERARCHY
ROOT Hips
{
	OFFSET 0.000000 0.000000 0.000000 
	CHANNELS 6 Xposition Yposition Zposition Yrotation Zrotation Xrotation 
	JOINT Lumbar
	{
		OFFSET 0.000000 0.000000 0.000000 
		CHANNELS 3 Zrotation Xrotation Yrotation
		JOINT Neck
		{
			OFFSET 0.000000 0.445665 0.000000 
			CHANNELS 3 Zrotation Xrotation Yrotation
			End Site
			{
				OFFSET 0.000000 0.227535 0.000000 
			}
		}
		JOINT RightShoulder
		{
			OFFSET 0.019635 0.377685 0.194865 
			CHANNELS 3 Zrotation Xrotation Yrotation
			JOINT RightElbow
			{
				OFFSET 0.000000 -0.243375 0.000000 
				CHANNELS 2 Zrotation Yrotation
				JOINT RightWrist
				{
					OFFSET 0.000000 -0.264825 0.000000 
					CHANNELS 2 Zrotation Xrotation
					End Site
					{
						OFFSET 0.006600 -0.176220 0.000990 
					}
				}
			}
		}
		JOINT LeftShoulder
		{
			OFFSET 0.019635 0.377685 -0.194865 
			CHANNELS 3 Zrotation Xrotation Yrotation
			JOINT LeftElbow
			{
				OFFSET 0.000000 -0.243375 0.000000 
				CHANNELS 2 Zrotation Yrotation
				JOINT LeftWrist
				{
					OFFSET 0.000000 -0.264825 0.000000 
					CHANNELS 2 Zrotation Xrotation
					End Site
					{
						OFFSET 0.006600 -0.176220 -0.000990 
					}
				}
			}
		}
	}
	JOINT RightHip
	{
		OFFSET 0.052140 -0.069960 0.075570 
		CHANNELS 3 Zrotation Xrotation Yrotation
		JOINT RightKnee
		{
			OFFSET 0.000000 -0.402270 0.000000 
			CHANNELS 1 Zrotation
			JOINT RightAnkle
			{
				OFFSET 0.000000 -0.404085 0.000000 
				CHANNELS 3 Zrotation Xrotation Yrotation
				End Site
				{
					OFFSET 0.204105 -0.089430 0.008415 
				}
			}
		}
	}
	JOINT LeftHip
	{
		OFFSET 0.052140 -0.069960 -0.075570 
		CHANNELS 3 Zrotation Xrotation Yrotation
		JOINT LeftKnee
		{
			OFFSET 0.000000 -0.402270 0.000000 
			CHANNELS 1 Zrotation
			JOINT LeftAnkle
			{
				OFFSET 0.000000 -0.404085 0.000000 
				CHANNELS 3 Zrotation Xrotation Yrotation
				End Site
				{
					OFFSET 0.204105 -0.089430 -0.008415 
				}
			}
		}
	}
}
MOTION
Frames: 16
Frame Time: 0.02
0.63269 -1.02753 -0.00034 -172.3708 54.51624 -3.76019 44.75612 2.30692 -4.90325 -11.8969 -4.27496 -2.11993 -1.3395 -145.05226 -75.64668 93.46284 105.00803 -45.44438 -5.51295 124.84967 35.83836 -40.5742 105.36522 -110.71991 -23.95463 8.54739 49.68027 13.68939 -46.6854 -10.26588 -40.80935 2.36294 -4.38184 40.90791 -5.88073 13.5598 -0.44721 -35.69657 -7.9994 -0.83419
0.63316 -1.02771 0.00064 -172.0945 54.66996 -4.0833 44.34817 2.56666 -4.32615 -11.8115 -4.04946 -2.11993 -0.56482 -144.62648 -75.55842 93.93374 105.23293 -44.87325 -5.56694 124.14306 35.79537 -39.82833 105.54738 -110.17925 -23.48764 8.4633 49.94051 13.6992 -46.7033 -8.74418 -41.5818 3.68702 -5.07831 40.7519 -5.92689 13.41787 -0.4464 -35.94399 -8.07805 -0.94573
0.63376 -1.02805 0.00168 -171.72757 54.74615 -4.46279 43.9362 2.84542 -3.57587 -11.65626 -3.79023 -2.11993 0.41257 -144.11116 -75.44496 94.51877 105.5149 -44.19424 -5.6342 123.6714 36.01402 -39.45599 105.78007 -110.82773 -24.36424 8.46016 50.28571 13.69417 -46.68567 -6.70304 -42.72976 5.00025 -6.41554 40.69811 -6.00818 13.25079 -0.4454 -36.28233 -8.06381 -1.04577
0.63431 -1.02833 0.00268 -171.41824 54.85427 -4.80604 43.53755 3.11277 -2.92922 -11.54874 -3.5345 -2.11993 1.25138 -143.62885 -75.34389 95.05224 105.74999 -43.57095 -5.69242 123.10263 36.11772 -38.95558 105.97712 -111.01686 -24.67792 8.43231 50.61043 13.6717 -46.62582 -4.95595 -43.66923 6.2699 -7.42276 40.60102 -6.06464 13.09015 -0.44457 -36.57554 -8.08632 -1.14036
0.63481 -1.02857 0.00374 -171.03823 54.98267 -5.19653 43.08424 3.39313 -2.17742 -11.37342 -3.3285 -2.11993 2.28639 -143.17881 -75.23995 95.58692 106.07622 -42.91735 -5.76382 122.4789 36.19537 -38.25968 106.22749 -110.83393 -24.7458 8.3519 50.85606 13.75163 -46.80877 -2.96283 -44.76726 7.75348 -8.58607 40.48323 -6.15813 12.95196 -0.44338 -36.88451 -8.13475 -1.27847
0.63544 -1.02893 0.00468 -170.78434 55.04953 -5.50104 42.74448 3.65012 -1.60387 -11.32427 -3.01057 -2.11993 2.96033 -142.63945 -75.13542 96.14413 106.22343 -42.30343 -5.81041 122.02236 36.38679 -38.05632 106.37955 -111.68488 -25.63476 8.39682 51.28375 13.61434 -46.48202 -1.35827 -45.62618 8.78898 -9.58002 40.43417 -6.18304 12.76126 -0.44289 -37.18201 -8.10615 -1.32453
0.63647 -1.02955 0.00528 -170.9034 54.94574 -5.55373 42.74106 3.84071 -1.56109 -11.62365 -2.39705 -2.11993 2.59172 -141.88607 -75.03732 96.74714 105.88124 -41.8095 -5.78888 122.07618 36.90743 -39.25865 106.23943 -115.54126 -28.80598 8.81808 52.24069 12.88469 -44.71805 -0.96633 -45.71385 8.54438 -9.94271 40.56866 -6.00914 12.42321 -0.44444 -37.42957 -7.88674 -1.11016
0.63762 -1.0303 0.00574 -171.15298 54.78489 -5.51693 42.84969 4.00607 -1.70507 -12.0557 -1.67135 -2.11993 1.85061 -141.04391 -74.93882 97.36517 105.35195 -41.36289 -5.74112 122.27438 37.52249 -40.9245 106 -120.33084 -32.70971 9.35477 53.37 11.93654 -42.44947 -0.98142 -45.55136 7.85548 -10.11544 40.76678 -5.76509 12.03509 -0.44668 -37.66153 -7.59319 -0.80547
0.63869 -1.03102 0.00625 -171.34047 54.66228 -5.52219 42.89316 4.18153 -1.76499 -12.43755 -0.99346 -2.11993 1.27927 -140.23572 -74.83939 97.97037 104.89756 -40.90443 -5.70312 122.33949 38.04308 -42.29067 105.81161 -124.40577 -36.05592 9.80597 54.39046 11.08555 -40.43726 -0.80213 -45.51589 7.39827 -10.38027 40.9245 -5.55397 11.6743 -0.44856 -37.89852 -7.33318 -0.54799
0.63988 -1.03161 0.00682 -171.53356 54.48639 -5.52687 42.99416 4.36506 -1.81229 -12.77309 -0.32708 -2.11993 0.71886 -139.45191 -74.74462 98.61062 104.49348 -40.39902 -5.67518 122.69463 38.78457 -44.038 105.60055 -129.72207 -40.37146 10.39707 55.5429 10.24185 -38.30998 -0.64401 -45.4374 6.81648 -10.64177 41.13324 -5.34022 11.29068 -0.45063 -38.14857 -7.06884 -0.26348
0.64084 -1.0325 0.00723 -171.75085 54.40737 -5.50662 43.00488 4.52348 -1.93643 -13.23909 0.38859 -2.11993 0.03718 -138.59666 -74.63937 99.17275 103.93248 -40.00707 -5.61927 122.48025 39.09205 -45.10573 105.41186 -132.69118 -42.85549 10.72598 56.45992 9.33278 -36.30254 -0.54569 -45.38403 6.38718 -10.85826 41.25062 -5.1141 10.94637 -0.45247 -38.36503 -6.79934 -0.01469
0.64108 -1.03424 0.00727 -171.97184 54.62229 -5.47448 42.71466 4.63663 -2.19366 -14.01826 1.21935 -2.11993 -0.82643 -137.57323 -74.51315 99.57526 103.04429 -39.8903 -5.49783 120.62671 38.1149 -44.10312 105.31023 -128.6705 -39.83397 10.27805 56.68802 8.2838 -34.7546 -0.51198 -45.46076 6.4999 -10.98107 41.09145 -4.87739 10.69412 -0.45353 -38.5051 -6.51477 0.11915
0.64109 -1.03626 0.00713 -172.21887 54.9342 -5.4134 42.33429 4.72214 -2.5284 -14.92622 2.09373 -2.11993 -1.81197 -136.48042 -74.37451 99.88616 101.9941 -39.89063 -5.34822 118.1979 36.70679 -42.41196 105.23136 -122.3013 -34.98711 9.56643 56.67246 7.17913 -33.34457 -0.52727 -45.56955 6.77868 -11.06473 40.8398 -4.62949 10.48843 -0.45434 -38.60919 -6.23147 0.21274
0.64122 -1.0381 0.00704 -172.47504 55.19452 -5.34242 42.01108 4.8082 -2.8511 -15.78641 2.9447 -2.11993 -2.78299 -135.4145 -74.23724 100.20012 100.97686 -39.85654 -5.20782 116.05414 35.53788 -41.0893 105.14466 -117.18608 -31.14638 8.99132 56.76556 6.10832 -31.8674 -0.5233 -45.66213 6.97401 -11.17373 40.63501 -4.38207 10.28067 -0.45527 -38.72096 -5.96063 0.32096
0.64129 -1.04019 0.00709 -172.64757 55.4866 -5.36609 41.62335 4.94325 -3.08442 -16.60987 3.81779 -2.11993 -3.59347 -134.36342 -74.12028 100.68044 100.12054 -39.74863 -5.08118 113.82344 34.19528 -39.55598 105.05518 -111.31885 -26.58868 8.35007 56.8725 4.99335 -30.38872 -0.52023 -45.75337 7.18947 -11.24535 40.40989 -4.15081 9.99145 -0.45617 -38.86854 -5.63253 0.44796
0.64144 -1.04182 0.0068 -172.9983 55.73373 -5.18641 41.34722 4.97112 -3.51728 -17.53355 4.64988 -2.11993 -4.7634 -133.2681 -73.95519 100.78861 98.8984 -39.81672 -4.92015 111.62578 33.10349 -38.28227 104.96408 -106.44435 -23.07841 7.78225 56.89174 3.96054 -28.95594 -0.522 -45.85793 7.40584 -11.38706 40.20707 -3.88524 9.8825 -0.45707 -38.93356 -5.42444 0.5249
